<svg width="15" height="11" viewBox="0 0 15 11" fill="none" xmlns="http://www.w3.org/2000/svg">
<path d="M7.5 3.625C7.99728 3.625 8.47419 3.82254 8.82582 4.17417C9.17745 4.52581 9.375 5.00272 9.375 5.5C9.375 5.99728 9.17745 6.47419 8.82582 6.82583C8.47419 7.17746 7.99728 7.375 7.5 7.375C7.00272 7.375 6.5258 7.17746 6.17417 6.82583C5.82254 6.47419 5.625 5.99728 5.625 5.5C5.625 5.00272 5.82254 4.52581 6.17417 4.17417C6.5258 3.82254 7.00272 3.625 7.5 3.625ZM7.5 0.8125C10.625 0.8125 13.2937 2.75625 14.375 5.5C13.2937 8.24375 10.625 10.1875 7.5 10.1875C4.375 10.1875 1.70625 8.24375 0.625 5.5C1.70625 2.75625 4.375 0.8125 7.5 0.8125ZM1.9875 5.5C2.49266 6.53144 3.27707 7.40047 4.25155 8.00828C5.22603 8.6161 6.3515 8.93832 7.5 8.93832C8.6485 8.93832 9.77397 8.6161 10.7484 8.00828C11.7229 7.40047 12.5073 6.53144 13.0125 5.5C12.5073 4.46856 11.7229 3.59953 10.7484 2.99172C9.77397 2.3839 8.6485 2.06168 7.5 2.06168C6.3515 2.06168 5.22603 2.3839 4.25155 2.99172C3.27707 3.59953 2.49266 4.46856 1.9875 5.5Z" fill="#0B95FF"/>
</svg>
