<svg width="18" height="18" viewBox="0 0 18 18" fill="none" xmlns="http://www.w3.org/2000/svg">
<path d="M17.031 17.79C17.491 18.25 18.201 17.54 17.741 17.09L13.991 13.33C15.3064 11.8745 16.0335 9.98183 16.031 8.02C16.031 3.63 12.461 0.0599976 8.07099 0.0599976C3.68099 0.0599976 0.110992 3.63 0.110992 8.02C0.110992 12.41 3.68099 15.98 8.07099 15.98C10.051 15.98 11.881 15.25 13.281 14.04L17.031 17.79ZM1.10999 8.02C1.10999 4.18 4.23999 1.06 8.06999 1.06C11.91 1.06 15.03 4.18 15.03 8.02C15.03 11.86 11.91 14.98 8.06999 14.98C4.23999 14.98 1.10999 11.86 1.10999 8.02Z" fill="#888CAD"/>
</svg>
