<svg width="21" height="20" viewBox="0 0 21 20" fill="none" xmlns="http://www.w3.org/2000/svg">
<path d="M20.1937 7.36144C20.1273 7.15018 19.999 6.96367 19.8256 6.82597C19.6521 6.68828 19.4414 6.60572 19.2206 6.58894L13.6471 6.10706C13.5794 6.10076 13.5146 6.07614 13.4598 6.03584C13.405 5.99555 13.3621 5.94109 13.3359 5.87831L11.1581 0.68925C11.073 0.48513 10.9294 0.310758 10.7454 0.188104C10.5614 0.06545 10.3452 0 10.124 0C9.90286 0 9.68666 0.06545 9.50265 0.188104C9.31863 0.310758 9.17503 0.48513 9.08994 0.68925L6.91494 5.87831C6.8887 5.94109 6.84587 5.99555 6.79104 6.03584C6.73621 6.07614 6.67145 6.10076 6.60369 6.10706L1.03307 6.58894C0.811801 6.60708 0.600848 6.69028 0.426772 6.82807C0.252697 6.96586 0.123281 7.15208 0.054822 7.36327C-0.0136372 7.57446 -0.0180794 7.80118 0.0420549 8.0149C0.102189 8.22861 0.224211 8.41975 0.392756 8.56425L4.62088 12.2533C4.67368 12.2986 4.71286 12.3576 4.73406 12.4238C4.75525 12.49 4.75761 12.5608 4.74088 12.6283L3.47057 18.1136C3.41822 18.3301 3.43195 18.5572 3.50999 18.7658C3.58804 18.9743 3.7268 19.1547 3.90838 19.2836C4.08586 19.4147 4.29858 19.4895 4.51903 19.4983C4.73948 19.5072 4.95752 19.4497 5.14494 19.3333L9.93557 16.4271C9.99307 16.3916 10.0593 16.3729 10.1268 16.3729C10.1944 16.3729 10.2606 16.3916 10.3181 16.4271L15.1087 19.3333C15.2981 19.4468 15.5167 19.5021 15.7372 19.4923C15.9578 19.4824 16.1706 19.4079 16.3491 19.2779C16.5276 19.148 16.664 18.9684 16.7411 18.7615C16.8183 18.5547 16.8329 18.3297 16.7831 18.1146L15.5156 12.6264C15.4988 12.559 15.5012 12.4881 15.5224 12.4219C15.5436 12.3557 15.5828 12.2967 15.6356 12.2514L19.8637 8.56238C20.032 8.41777 20.1533 8.22624 20.2121 8.01229C20.2709 7.79835 20.2645 7.57173 20.1937 7.36144ZM19.3706 7.99894L15.1424 11.688C14.9877 11.8223 14.8725 11.9963 14.8094 12.1913C14.7463 12.3862 14.7376 12.5947 14.7843 12.7943L16.0518 18.2805C16.0695 18.3532 16.0651 18.4296 16.039 18.4998C16.0129 18.5699 15.9665 18.6307 15.9056 18.6742C15.8471 18.7176 15.7769 18.7424 15.7041 18.7452C15.6314 18.748 15.5594 18.7289 15.4978 18.6902L10.7071 15.7839C10.5324 15.6773 10.3316 15.6208 10.1268 15.6208C9.92206 15.6208 9.72127 15.6773 9.54651 15.7839L4.75588 18.6902C4.69419 18.7289 4.62227 18.748 4.54951 18.7452C4.47676 18.7424 4.40655 18.7176 4.34807 18.6742C4.28718 18.6307 4.24071 18.5699 4.21464 18.4998C4.18858 18.4296 4.18411 18.3532 4.20182 18.2805L5.46932 12.7924C5.51604 12.5929 5.50737 12.3844 5.44426 12.1894C5.38115 11.9944 5.26598 11.8204 5.11119 11.6861L0.883069 7.99894C0.826149 7.9501 0.785182 7.88531 0.765462 7.81294C0.745742 7.74058 0.748174 7.66397 0.772444 7.593C0.795072 7.52318 0.837691 7.46154 0.895017 7.41571C0.952344 7.36988 1.02186 7.34189 1.09494 7.33519L6.66838 6.85331C6.8722 6.83514 7.0672 6.76173 7.23239 6.64097C7.39759 6.52022 7.52672 6.35669 7.60588 6.168L9.78276 0.978C9.8121 0.911456 9.86016 0.85488 9.92108 0.815161C9.982 0.775442 10.0532 0.754295 10.1259 0.754295C10.1986 0.754295 10.2698 0.775442 10.3307 0.815161C10.3916 0.85488 10.4397 0.911456 10.469 0.978L12.6459 6.168C12.725 6.35669 12.8542 6.52022 13.0194 6.64097C13.1846 6.76173 13.3796 6.83514 13.5834 6.85331L19.1568 7.33519C19.2299 7.34189 19.2994 7.36988 19.3567 7.41571C19.4141 7.46154 19.4567 7.52318 19.4793 7.593C19.5038 7.66379 19.5065 7.74028 19.4872 7.81263C19.4678 7.88498 19.4272 7.94987 19.3706 7.99894Z" fill="#9397BA"/>
</svg>
